<svg data-v-423bf9ae="" xmlns="http://www.w3.org/2000/svg" viewBox="0 0 81.77370405763654 60" class="font"><!----><!----><!----><g data-v-423bf9ae="" id="e583225f-fa58-42ce-a2d1-5bb3e2680077" fill="white" transform="matrix(6.116208284037474,0,0,6.116208284037474,-2.5688069285524335,-25.6269125832521)"><path d="M0.98 7.06C1.20 7.06 1.39 6.93 1.48 6.75C1.53 6.68 1.54 6.59 1.54 6.50C1.54 6.17 1.65 5.88 1.88 5.64C2.07 5.43 2.34 5.31 2.62 5.31C2.90 5.31 3.16 5.43 3.37 5.64C3.58 5.88 3.71 6.17 3.71 6.50C3.71 6.59 3.72 6.68 3.77 6.75C3.85 6.93 4.05 7.06 4.27 7.06C4.48 7.06 4.68 6.93 4.77 6.75C4.80 6.68 4.83 6.59 4.83 6.50C4.83 5.22 3.84 4.19 2.62 4.19L2.60 4.19C1.64 4.20 0.80 4.87 0.52 5.81C0.46 6.02 0.42 6.26 0.42 6.50C0.42 6.59 0.45 6.68 0.48 6.75C0.57 6.93 0.76 7.06 0.98 7.06ZM3.71 7.07C3.71 7.07 3.71 7.08 3.71 7.08C3.71 7.41 3.58 7.71 3.37 7.94C3.18 8.15 2.93 8.26 2.66 8.27L2.62 8.27L1.54 8.27L1.54 7.07C1.40 7.21 1.20 7.29 0.98 7.29C0.76 7.29 0.56 7.21 0.42 7.07L0.42 13.44C0.42 13.75 0.67 14 0.98 14L2.62 14C3.84 14 4.83 12.96 4.83 11.69L4.83 10.60C4.83 9.90 4.52 9.27 4.06 8.85C4.52 8.41 4.83 7.78 4.83 7.08C4.68 7.21 4.48 7.29 4.27 7.29C4.05 7.29 3.85 7.21 3.71 7.07ZM3.71 11.69C3.71 12.01 3.58 12.32 3.37 12.54C3.16 12.75 2.90 12.88 2.62 12.88L1.54 12.88L1.54 9.41L2.62 9.41L2.66 9.41C2.93 9.41 3.18 9.53 3.37 9.74C3.58 9.97 3.71 10.28 3.71 10.60ZM6.79 11.12C6.65 10.98 6.45 10.89 6.23 10.89C6.02 10.89 5.81 10.98 5.67 11.12L5.67 4.79C5.67 4.48 5.92 4.23 6.23 4.23C6.54 4.23 6.79 4.48 6.79 4.79ZM7.87 14C6.66 14 5.67 12.96 5.67 11.69C5.67 11.38 5.92 11.13 6.23 11.13C6.54 11.13 6.79 11.38 6.79 11.69C6.79 12.01 6.90 12.32 7.13 12.54C7.32 12.77 7.59 12.88 7.87 12.88C8.15 12.88 8.41 12.77 8.62 12.54C8.83 12.32 8.96 12.01 8.96 11.69C8.96 11.38 9.21 11.13 9.52 11.13C9.83 11.13 10.08 11.38 10.08 11.69C10.08 12.96 9.09 14 7.87 14ZM10.50 6.44C10.36 6.30 10.16 6.22 9.94 6.22C9.72 6.22 9.52 6.30 9.38 6.44L9.38 4.77C9.38 4.45 9.63 4.21 9.94 4.21C10.25 4.21 10.50 4.45 10.50 4.77ZM13.79 6.44C13.64 6.30 13.44 6.22 13.23 6.22C13.01 6.22 12.81 6.30 12.67 6.44L12.67 4.77C12.67 4.45 12.92 4.21 13.23 4.21C13.54 4.21 13.79 4.45 13.79 4.77ZM13.79 7.01C13.79 7.25 13.75 7.49 13.68 7.71C13.40 8.64 12.57 9.32 11.59 9.32L11.58 9.32C10.37 9.32 9.38 8.29 9.38 7.01C9.38 6.93 9.41 6.85 9.44 6.76C9.53 6.58 9.72 6.45 9.94 6.45C10.16 6.45 10.35 6.58 10.44 6.76C10.49 6.85 10.50 6.93 10.50 7.01C10.50 7.34 10.61 7.64 10.84 7.87C11.03 8.09 11.30 8.20 11.58 8.20C11.86 8.20 12.12 8.09 12.33 7.87C12.54 7.64 12.67 7.34 12.67 7.01C12.67 6.93 12.68 6.85 12.73 6.76C12.81 6.58 13.01 6.45 13.23 6.45C13.44 6.45 13.64 6.58 13.73 6.76C13.76 6.85 13.79 6.93 13.79 7.01ZM11.58 9.56C11.77 9.56 11.97 9.55 12.14 9.49L12.14 13.44C12.14 13.75 11.89 14 11.58 14C11.27 14 11.02 13.75 11.02 13.44L11.02 9.49C11.20 9.55 11.40 9.56 11.58 9.56Z"></path></g><!----><!----></svg>